<mxfile host="Electron" agent="Mozilla/5.0 (Macintosh; Intel Mac OS X 10_15_7) AppleWebKit/537.36 (KHTML, like Gecko) draw.io/26.0.9 Chrome/128.0.6613.186 Electron/32.2.5 Safari/537.36" version="26.0.9">
  <diagram name="Page-1" id="0ewcP3W1zmbRKoIS_54O">
    <mxGraphModel dx="1114" dy="821" grid="1" gridSize="10" guides="1" tooltips="1" connect="1" arrows="1" fold="1" page="1" pageScale="1" pageWidth="827" pageHeight="1169" math="0" shadow="0">
      <root>
        <mxCell id="0" />
        <mxCell id="1" parent="0" />
        <mxCell id="9b48iOdKWXOKuZC99meq-7" value="일괄 처리" style="rounded=1;whiteSpace=wrap;html=1;verticalAlign=top;fontStyle=1" vertex="1" parent="1">
          <mxGeometry x="260" y="68" width="80" height="155" as="geometry" />
        </mxCell>
        <mxCell id="9b48iOdKWXOKuZC99meq-1" value="요청 1" style="rounded=0;whiteSpace=wrap;html=1;" vertex="1" parent="1">
          <mxGeometry x="90" y="130" width="40" height="30" as="geometry" />
        </mxCell>
        <mxCell id="9b48iOdKWXOKuZC99meq-2" value="요청 2" style="rounded=0;whiteSpace=wrap;html=1;" vertex="1" parent="1">
          <mxGeometry x="140" y="130" width="40" height="30" as="geometry" />
        </mxCell>
        <mxCell id="9b48iOdKWXOKuZC99meq-8" style="edgeStyle=orthogonalEdgeStyle;rounded=0;orthogonalLoop=1;jettySize=auto;html=1;entryX=0;entryY=0.5;entryDx=0;entryDy=0;endArrow=block;endFill=1;" edge="1" parent="1" source="9b48iOdKWXOKuZC99meq-3" target="9b48iOdKWXOKuZC99meq-7">
          <mxGeometry relative="1" as="geometry" />
        </mxCell>
        <mxCell id="9b48iOdKWXOKuZC99meq-3" value="요청 3" style="rounded=0;whiteSpace=wrap;html=1;" vertex="1" parent="1">
          <mxGeometry x="190" y="130" width="40" height="30" as="geometry" />
        </mxCell>
        <mxCell id="9b48iOdKWXOKuZC99meq-4" value="요청 1" style="rounded=0;whiteSpace=wrap;html=1;" vertex="1" parent="1">
          <mxGeometry x="280" y="103" width="40" height="30" as="geometry" />
        </mxCell>
        <mxCell id="9b48iOdKWXOKuZC99meq-5" value="요청 2" style="rounded=0;whiteSpace=wrap;html=1;" vertex="1" parent="1">
          <mxGeometry x="280" y="143" width="40" height="30" as="geometry" />
        </mxCell>
        <mxCell id="9b48iOdKWXOKuZC99meq-6" value="요청 3" style="rounded=0;whiteSpace=wrap;html=1;" vertex="1" parent="1">
          <mxGeometry x="280" y="183" width="40" height="30" as="geometry" />
        </mxCell>
      </root>
    </mxGraphModel>
  </diagram>
</mxfile>
